Coordinates
version=1
nRows=26
nColumns=24
inDegrees=yes

Units are S.I. units (second, meters, Newtons, ...)
Angles are in degrees.

endheader
time	pelvis_tilt	pelvis_list	pelvis_rotation	pelvis_tx	pelvis_ty	pelvis_tz	hip_flexion_r	hip_adduction_r	hip_rotation_r	knee_angle_r	ankle_angle_r	subtalar_angle_r	mtp_angle_r	hip_flexion_l	hip_adduction_l	hip_rotation_l	knee_angle_l	ankle_angle_l	subtalar_angle_l	mtp_angle_l	lumbar_extension	lumbar_bending	lumbar_rotation
      5.57000000	     -7.74674273	     -8.32421702	      3.74246134	     -0.76845320	     -0.01262900	      2.09537977	      4.01367149	     13.90965789	     -5.10910655	     -5.53602198	     10.87242516	     -2.08363458	    -57.64570092	     34.53097285	     -6.72867433	      1.16083270	    -51.51243654	     13.99661050	      1.75730200	    -49.87411626	      4.71402801	      7.81958811	     -1.53834700
      5.58000000	     -7.86753604	     -8.04288205	      3.64977483	     -0.75677606	     -0.01327100	      2.09596798	      3.01902560	     13.70121427	     -5.12731982	     -4.99685739	     11.31207410	     -1.63437623	    -57.49217816	     35.33332379	     -6.36744021	      0.67093357	    -49.05985824	     14.36010235	      2.33989196	    -49.91302298	      4.74156381	      7.52590286	     -1.20105483
      5.59000000	     -7.94701650	     -7.77768078	      3.57456538	     -0.74510238	     -0.01410035	      2.09649344	      2.00622095	     13.51224516	     -5.18521603	     -4.49773947	     11.79144357	     -1.23033335	    -57.39540650	     35.99685437	     -6.05370637	      0.09873874	    -46.43722361	     14.67568786	      3.10299106	    -50.02039211	      4.72050495	      7.24631640	     -0.88650788
      5.60000000	     -8.04462708	     -7.53213052	      3.49603221	     -0.73343591	     -0.01512415	      2.09691839	      1.05533249	     13.33771463	     -5.25996251	     -4.07005871	     12.26776731	     -0.87717475	    -57.34242256	     36.56808889	     -5.77633656	     -0.54606227	    -43.63464738	     14.92673923	      4.04523352	    -50.16880548	      4.70837510	      6.99448253	     -0.60393996
      5.61000000	     -8.14725541	     -7.31105270	      3.43165208	     -0.72173905	     -0.01633061	      2.09722271	      0.13772370	     13.18482020	     -5.35754596	     -3.68859013	     12.76608610	     -0.55897748	    -57.30269848	     37.03396329	     -5.52583489	     -1.25571437	    -40.67743601	     15.07706127	      5.15244811	    -50.32206582	      4.70307336	      6.77593848	     -0.36114281
      5.62000000	     -8.24498969	     -7.10777711	      3.38670509	     -0.71000428	     -0.01765043	      2.09741315	     -0.74506657	     13.04812521	     -5.51152280	     -3.37350586	     13.25660970	     -0.25861232	    -57.25569341	     37.36404598	     -5.27965002	     -2.00879172	    -37.56235849	     15.10171282	      6.38224945	    -50.42681499	      4.69039615	      6.58092096	     -0.16097725
      5.63000000	     -8.32351809	     -6.91218705	      3.35502789	     -0.69822811	     -0.01902254	      2.09746934	     -1.59356960	     12.91071665	     -5.74145645	     -3.15890704	     13.74480298	      0.07399799	    -57.17980274	     37.53132320	     -5.01681783	     -2.79155436	    -34.30432245	     15.00455923	      7.65736129	    -50.42618470	      4.65619005	      6.40331854	      0.00928134
      5.64000000	     -8.35180055	     -6.70263213	      3.34495844	     -0.68633819	     -0.02037674	      2.09736655	     -2.44492729	     12.74125133	     -6.07150558	     -3.05527859	     14.25356717	      0.53510005	    -57.06150713	     37.49556189	     -4.69579905	     -3.54927254	    -30.93355512	     14.81883009	      8.88507456	    -50.23454117	      4.57714444	      6.22223368	      0.15413952
      5.65000000	     -8.40453898	     -6.49143404	      3.30587268	     -0.67446182	     -0.02174605	      2.09719235	     -3.15952493	     12.54372026	     -6.50443202	     -3.16307422	     14.78291532	      1.11181233	    -56.88276804	     37.37376189	     -4.36139708	     -4.35773353	    -27.52425174	     14.55310159	     10.02049676	    -49.89163009	      4.50624516	      6.05153235	      0.29061083
      5.66000000	     -8.27757082	     -6.22782624	      3.44571271	     -0.66236705	     -0.02295850	      2.09663293	     -4.04020073	     12.26195846	     -7.21857707	     -3.33966037	     15.37092702	      2.00252312	    -56.64838777	     36.94999202	     -3.82091151	     -4.89257586	    -24.10921724	     14.21105074	     10.96684087	    -48.79432096	      4.28114372	      5.83053517	      0.24628158
      5.67000000	     -8.37098746	     -5.94758846	      3.36542470	     -0.65016203	     -0.02427525	      2.09614485	     -4.57794658	     11.89869864	     -7.74186078	     -3.76797686	     15.97922889	      2.94222082	    -56.55445741	     36.66025509	     -3.32829027	     -5.51141034	    -20.77272700	     13.36767464	     11.68291644	    -44.54334491	      4.27767215	      5.62289311	      0.38730531
      5.68000000	     -8.45737917	     -5.65941958	      3.27995282	     -0.63774210	     -0.02555963	      2.09561409	     -5.06034916	     11.48333104	     -8.37034735	     -4.35135344	     16.57134496	      4.13417415	    -56.18972241	     36.31177046	     -2.84039029	     -6.07808932	    -17.62406711	     13.36184381	     12.45216362	    -44.40820146	      4.28725086	      5.40685491	      0.54251078
      5.69000000	     -8.41639285	     -5.31135497	      3.27850151	     -0.62515804	     -0.02665190	      2.09489045	     -5.62600990	     10.96895376	     -9.09849715	     -5.06081156	     17.12324116	      5.45682027	    -55.71059334	     35.77550084	     -2.24004037	     -6.50530295	    -14.66972439	     13.35634549	     13.09436733	    -44.13826056	      4.17438075	      5.12954828	      0.54323874
      5.70000000	     -8.44639130	     -4.95309019	      3.13841328	     -0.61223368	     -0.02771145	      2.09421279	     -6.08486287	     10.38739914	     -9.65070519	     -5.88455727	     17.56009079	      6.83184457	    -55.14828732	     35.27307429	     -1.70441319	     -6.97835478	    -12.03827529	     13.46370884	     13.66429309	    -43.86210012	      4.17064763	      4.85866262	      0.68665189
      5.71000000	     -8.46996816	     -4.60178227	      2.93309449	     -0.59917780	     -0.02871229	      2.09354664	     -6.46120557	      9.76804627	    -10.08670355	     -6.89653732	     17.92114070	      8.18109059	    -54.51336348	     34.79256111	     -1.22480194	     -7.48005457	     -9.86148173	     13.59887361	     14.13764966	    -43.62844327	      4.16261577	      4.60175085	      0.86084855
      5.72000000	     -8.41403605	     -4.25239154	      2.75304058	     -0.58569079	     -0.02963508	      2.09281579	     -6.91971695	      9.12091897	    -10.52132498	     -7.95020890	     18.12477369	      9.60547882	    -53.65093976	     34.28817007	     -0.76051863	     -7.95500795	     -8.28706456	     13.85063617	     14.52413226	    -43.34159693	      4.13187868	      4.33720263	      0.97073508
      5.73000000	     -8.32403148	     -3.94565823	      2.58113119	     -0.57191187	     -0.03054971	      2.09222074	     -7.38701357	      8.55822973	    -10.60463283	     -9.04243111	     17.55681008	     10.43891267	    -48.88426700	     33.86573748	     -0.37217430	     -8.30721535	     -7.42793177	     13.97125591	     14.70086528	    -41.97793844	      4.10500751	      4.08421978	      1.02258335
      5.74000000	     -8.23587382	     -3.65447522	      2.35062009	     -0.55781237	     -0.03151961	      2.09160238	     -7.75877418	      7.92572352	    -10.84270490	    -10.35131182	     17.40380075	     11.70840724	    -46.96946708	     33.56488788	     -0.06066825	     -8.56486978	     -7.32579521	     14.32753591	     14.56998994	    -41.93404450	      4.12186692	      3.85314907	      1.15954202
      5.75000000	     -8.25359912	     -3.52400867	      2.14384797	     -0.54350424	     -0.03271768	      2.09092194	     -7.91585542	      7.41406481	    -11.19243687	    -11.83731462	     17.20188575	     13.13947045	    -45.57949618	     33.54754734	      0.06875327	     -8.67053016	     -7.98944066	     14.69138730	     14.35828133	    -41.99168392	      4.29125107	      3.77586589	      1.17896272
      5.76000000	     -8.26057716	     -3.30573558	      1.81020538	     -0.52887154	     -0.03382394	      2.09050153	     -8.00887850	      6.82836907	    -11.11056052	    -13.45043119	     16.33403554	     14.00177059	    -40.85953215	     33.46228948	      0.20754408	     -8.44964876	     -8.96131908	     14.71263021	     13.39298227	    -42.73098710	      4.47688328	      3.58750196	      1.38993987
      5.77000000	     -8.30670943	     -3.07399072	      1.58189864	     -0.51405516	     -0.03500738	      2.08981025	     -7.94058233	      6.15090379	    -11.37638376	    -15.29297140	     15.62330533	     15.24989265	    -37.74225509	     33.40558379	      0.42373051	     -7.97907993	    -10.13019450	     14.24715724	     12.10596254	    -43.69252354	      4.73393418	      3.37579104	      1.46959091
      5.78000000	     -8.39190992	     -2.72845178	      1.53422881	     -0.49915097	     -0.03618003	      2.08868603	     -7.70173467	      5.25643013	    -12.09668724	    -17.39166106	     15.08703063	     16.91857626	    -36.54013049	     33.32347067	      0.88152946	     -7.21115724	    -11.22579102	     13.01465813	     10.41013878	    -44.34119686	      5.04582571	      3.03709337	      1.38409846
      5.79000000	     -8.43795226	     -2.14743292	      1.42426893	     -0.48430306	     -0.03689747	      2.08780670	     -7.38548897	      4.13423803	    -12.56474679	    -19.57680949	     13.21174279	     17.99323869	    -29.20708295	     33.08654088	      1.50722050	     -6.56477155	    -12.10077648	     11.36047127	      8.57451998	    -46.14743694	      5.28068033	      2.42443503	      1.41427425
      5.80000000	     -8.80406867	     -1.45022818	      1.51070118	     -0.46955582	     -0.03777165	      2.08670544	     -6.56020204	      2.80906847	    -13.42156481	    -21.99981417	     11.04916469	     19.15783628	    -22.66106506	     33.30597185	      2.33421511	     -5.96557113	    -13.08576665	      9.36993590	      7.02599612	    -46.83892766	      5.84740997	      1.64094799	      1.22286456
      5.81000000	     -9.14374153	     -0.65467025	      1.66169678	     -0.45497969	     -0.03835656	      2.08570933	     -5.63155210	      1.33567856	    -14.39782599	    -24.49102193	      7.87059028	     20.05530317	    -13.74013797	     33.64513067	      3.22473213	     -5.64500820	    -14.34203854	      7.71431556	      6.09750867	    -47.29919217	      6.33981096	      0.71764487	      1.02854890
      5.82000000	     -9.51004331	      0.12395190	      1.78579013	     -0.44054457	     -0.03874428	      2.08487932	     -4.51103394	     -0.16021540	    -15.31074862	    -27.00990716	      3.52004364	     20.41930272	     -2.22284332	     34.14644367	      4.04615210	     -5.51013823	    -15.89809853	      6.64497989	      5.62979223	    -47.92929856	      6.82505829	     -0.20421958	      0.90619013
